<svg xmlns="http://www.w3.org/2000/svg" viewBox="0 0 110.43 215.8"><defs><style>.a{fill:none;}.b{fill:#e2e1e1;}.c{fill:#ffe3b2;}.d{fill:#ffb599;}.e{fill:#bbe5ed;}.f{fill:#fff;}.g{fill:#f1eeed;}.h{fill:#393434;}.i{fill:#d9d5cc;}.j{opacity:0.15;}.k{fill:#5e7377;}.l{fill:red;}</style></defs><line class="a" x1="47.74" y1="185.69" x2="47.74" y2="212.69"/><path d="M49.32,186.37v27a1.54,1.54,0,0,1-3.08,0v-27a1.54,1.54,0,0,1,3.08,0Z" transform="translate(-0.04 -0.69)"/><line class="a" x1="76.42" y1="184.87" x2="76.42" y2="213.82"/><path d="M78,185.55v29a1.54,1.54,0,0,1-3.08,0v-29a1.54,1.54,0,1,1,3.08,0Z" transform="translate(-0.04 -0.69)"/><path class="b" d="M61.88,165.91h.45A2.7,2.7,0,0,0,65,163.2v-26a2.71,2.71,0,0,0-2.68-2.72h-.47a2.71,2.71,0,0,0-2.7,2.7v26A2.72,2.72,0,0,0,61.88,165.91Z" transform="translate(-0.04 -0.69)"/><path d="M61.88,164.37c1.92,0,1.64-1.54,1.64-2.91V140c0-.89.28-2.36-.1-3.22-.61-1.33-2.5-.71-2.74.48a6.25,6.25,0,0,0,0,1.06v21.94c0,1.13-.48,4,1.2,4.14,2,.17,2,3.25,0,3.08-3-.24-4.24-2.47-4.24-5.2v-24c0-2.6,1.06-5.1,4-5.3a4.49,4.49,0,0,1,4.92,4.75c.07,5.34,0,10.68,0,16.05v8.35c0,3-1.4,5.34-4.72,5.34a1.52,1.52,0,0,1-1.39-1.67A1.55,1.55,0,0,1,61.88,164.37Z" transform="translate(-0.04 -0.69)"/><path class="c" d="M43.34,193.14H80.91a13.56,13.56,0,0,0,13.51-13.51v-12.8a13.56,13.56,0,0,0-13.51-13.51H43.3a13.56,13.56,0,0,0-13.51,13.51v12.8A13.57,13.57,0,0,0,43.34,193.14Z" transform="translate(-0.04 -0.69)"/><path d="M43.34,191.6H73.79c4.21,0,9.1.62,12.9-1.5a12.18,12.18,0,0,0,6.19-10.51V172.2a48.39,48.39,0,0,0-.13-7.32,12.12,12.12,0,0,0-8.35-9.55,18.39,18.39,0,0,0-5.38-.51H45.49a21.94,21.94,0,0,0-4.72.27,12.18,12.18,0,0,0-9,8.87c-.62,2.46-.35,5.2-.35,7.7v7.76a12.21,12.21,0,0,0,5.44,10.17,11.39,11.39,0,0,0,6.51,2,1.54,1.54,0,0,1,0,3.08,15.27,15.27,0,0,1-12.24-6.19,16.37,16.37,0,0,1-2.87-10.06v-9.64c0-3.39.34-6.64,2.12-9.65a15.26,15.26,0,0,1,11.5-7.25c1.47-.14,3-.07,4.48-.07H80.68A15.3,15.3,0,0,1,95.93,167v8.45c0,2.81.2,5.92-.69,8.76a15.26,15.26,0,0,1-9.44,9.72,19.41,19.41,0,0,1-6.6.82H43.27a1.56,1.56,0,1,1,.07-3.12Z" transform="translate(-0.04 -0.69)"/><path class="d" d="M61.3,165.48h1.64a9.85,9.85,0,0,1,9.79,9.79v.82H51.51v-.82A9.84,9.84,0,0,1,61.3,165.48Z" transform="translate(-0.04 -0.69)"/><path d="M61.3,163.92c3.35,0,6.36.48,9,2.74a11.84,11.84,0,0,1,4,9.41,1.57,1.57,0,0,1-1.54,1.54H51.51A1.57,1.57,0,0,1,50,176.07c0-6.57,4.55-12,11.33-12.15a1.54,1.54,0,0,1,0,3.08c-5.1.14-8.25,4.21-8.25,9.07l-1.54-1.54H72.73l-1.54,1.54a8.78,8.78,0,0,0-3.06-7.25c-2-1.65-4.31-1.82-6.81-1.82a1.54,1.54,0,1,1,0-3.08Z" transform="translate(-0.04 -0.69)"/><path class="e" d="M74.75,204.33h1.64a9.85,9.85,0,0,1,9.74,9.79v.82H65v-.82A9.84,9.84,0,0,1,74.75,204.33Z" transform="translate(-0.04 -0.69)"/><path d="M74.75,202.79c3.35,0,6.36.48,9,2.74a11.84,11.84,0,0,1,4,9.41,1.57,1.57,0,0,1-1.62,1.54H65a1.57,1.57,0,0,1-1.54-1.54c0-6.57,4.55-12,11.33-12.15a1.54,1.54,0,0,1,0,3.08c-5.1.14-8.25,4.21-8.25,9.07L65,213.4H86.13l-1.54,1.54a8.8,8.8,0,0,0-3.08-7.25c-2-1.65-4.31-1.82-6.81-1.82a1.54,1.54,0,1,1,0-3.08Z" transform="translate(-0.04 -0.69)"/><path class="e" d="M47,204.33h1.65a9.84,9.84,0,0,1,9.78,9.79v.82H37.13v-.82A9.83,9.83,0,0,1,47,204.33Z" transform="translate(-0.04 -0.69)"/><path d="M47,202.79c3.36,0,6.37.48,9,2.74a11.84,11.84,0,0,1,4,9.41,1.57,1.57,0,0,1-1.57,1.54H37.13a1.57,1.57,0,0,1-1.54-1.54c0-6.57,4.55-12,11.32-12.15a1.54,1.54,0,0,1,0,3.08c-5.1.14-8.24,4.21-8.24,9.07l-1.54-1.54H58.39l-1.54,1.54a8.8,8.8,0,0,0-3.08-7.25c-2-1.65-4.31-1.82-6.81-1.82a1.54,1.54,0,1,1,0-3.08Z" transform="translate(-0.04 -0.69)"/><path d="M60.86,175.48c-.07-1.57-.18-3.15-.24-4.75-.11-2,3-2,3.08,0,.06,1.57.17,3.14.23,4.75C64,177.48,60.93,177.48,60.86,175.48Z" transform="translate(-0.04 -0.69)"/><circle class="f" cx="99.07" cy="163.86" r="4.55"/><path d="M96.13,164.54c.2,3.83,6,3.9,6,0s-5.82-3.83-6,0c-.1,2-3.18,2-3.08,0a6.21,6.21,0,0,1,6.08-6.06,6.09,6.09,0,0,1,0,12.18A6.18,6.18,0,0,1,93,164.57C92.92,162.55,96,162.55,96.13,164.54Z" transform="translate(-0.04 -0.69)"/><path d="M100.65,169.33v21.86a1.54,1.54,0,1,1-3.08,0V169.33a1.54,1.54,0,1,1,3.08,0Z" transform="translate(-0.04 -0.69)"/><path class="g" d="M99.76,114.24A39.9,39.9,0,0,0,64,91.66H60.82a39.82,39.82,0,0,0-39.69,39.69h0A12.65,12.65,0,0,0,33.76,144H91a12.65,12.65,0,0,0,12.63-12.62h0a40.42,40.42,0,0,0-.72-7.6" transform="translate(-0.04 -0.69)"/><path d="M98.43,115a39.23,39.23,0,0,0-19-18.51c-7.18-3.25-15.56-4-23.37-3a38.6,38.6,0,0,0-33.19,33.83c-.44,4.35-.2,8.59,3.05,11.87a11.15,11.15,0,0,0,8,3.25H90a13.39,13.39,0,0,0,4.58-.58,11.24,11.24,0,0,0,7.54-9.54,29.79,29.79,0,0,0-.65-8.15c-.38-2,2.6-2.77,3-.82.92,5,1.54,10.44-1.06,15a14.37,14.37,0,0,1-10.88,7.14,88.05,88.05,0,0,1-8.9.06H34.34C27,145.48,20.68,140.48,19.76,133c-.55-4.44.38-9.37,1.68-13.61a41.12,41.12,0,0,1,6-12.08A42.08,42.08,0,0,1,49,91.9a48.61,48.61,0,0,1,25-.55,41.71,41.71,0,0,1,23.48,15.88,40.13,40.13,0,0,1,3.7,6.25c.79,1.78-1.88,3.32-2.73,1.54Z" transform="translate(-0.04 -0.69)"/><path d="M56.56,131.9a1.54,1.54,0,1,1,1.54-1.54A1.53,1.53,0,0,1,56.56,131.9Z" transform="translate(-0.04 -0.69)"/><path d="M53,134.15a1.54,1.54,0,1,1,1.54-1.54A1.53,1.53,0,0,1,53,134.15Z" transform="translate(-0.04 -0.69)"/><path d="M48.59,134.15a1.54,1.54,0,1,1,1.54-1.54,1.53,1.53,0,0,1-1.54,1.54Z" transform="translate(-0.04 -0.69)"/><path d="M45,131.9a1.54,1.54,0,1,1,1.54-1.54A1.53,1.53,0,0,1,45,131.9Z" transform="translate(-0.04 -0.69)"/><circle class="f" cx="38.28" cy="117.15" r="7.01"/><path class="h" d="M38.32,120.4c-3.32,0-3.32-5.13,0-5.13S41.64,120.4,38.32,120.4Z" transform="translate(-0.04 -0.69)"/><circle class="f" cx="63.05" cy="117.15" r="7.01"/><path class="h" d="M63.13,120.4c-3.31,0-3.31-5.13,0-5.13S66.45,120.4,63.13,120.4Z" transform="translate(-0.04 -0.69)"/><path d="M103.49,88.06c1.47-1.43,2.91-2.9,4.38-4.34a1.55,1.55,0,0,1,2.19,2.19c-1.47,1.44-2.93,2.91-4.38,4.34a1.55,1.55,0,0,1-2.19-2.19Z" transform="translate(-0.04 -0.69)"/><path d="M90.45,101l9.48-9.45a1.55,1.55,0,0,1,2.2,2.19l-9.48,9.45A1.55,1.55,0,0,1,90.46,101Z" transform="translate(-0.04 -0.69)"/><path d="M20.41,89.48C18.94,88,17.5,86.57,16,85.13a1.55,1.55,0,0,1,2.19-2.19c1.47,1.43,2.91,2.9,4.38,4.34a1.55,1.55,0,0,1-2.19,2.2Z" transform="translate(-0.04 -0.69)"/><path d="M33.45,102.4C30.3,99.25,27.12,96.1,24,93a1.55,1.55,0,0,1,2.16-2.19c3.15,3.14,6.33,6.29,9.48,9.44a1.55,1.55,0,0,1-2.19,2.19Z" transform="translate(-0.04 -0.69)"/><path class="f" d="M76,97.06a23.53,23.53,0,0,1,9.92,5.17c1.51,1.3-.61,3.56-2.09,2.26a19.85,19.85,0,0,0-8.55-4.42,1.54,1.54,0,0,1-1-1.93A1.56,1.56,0,0,1,76,97.06Z" transform="translate(-0.04 -0.69)"/><path class="f" d="M90,106.23a39.79,39.79,0,0,1,4.66,5.38c1.16,1.6-1.37,3.38-2.54,1.74a37.43,37.43,0,0,0-4.1-4.79C86.62,107.23,88.61,104.86,90,106.23Z" transform="translate(-0.04 -0.69)"/><path class="i" d="M22.6,130.66A12.07,12.07,0,0,0,26,139.39c2.19,2.19,5.24,3,8.56,3h9a11.58,11.58,0,0,1-12.11-11c0-.23,0-.46,0-.69,0-19.91,15.67-35.92,35.21-37.43-1-.07-2.46-.1-3.45-.1h-2.6C39.71,93.13,23.13,110.82,22.6,130.66Z" transform="translate(-0.04 -0.69)"/><path class="i" d="M31.29,167.24l.07,12c-.21,7.11,5.51,12.42,12.49,12.42H53a12.52,12.52,0,0,1-12.66-12.37V167.18a12.4,12.4,0,0,1,12.48-12.32H43.75a12.18,12.18,0,0,0-12.46,11.86Z" transform="translate(-0.04 -0.69)"/><g class="j"><path class="k" d="M38.85,213.37h4.28c0-2.09.31-4,1.72-5.38a7.49,7.49,0,0,1,4-2.08,5.09,5.09,0,0,0-1.4-.14c-2.5.27-4.17.72-5.64,2A8.54,8.54,0,0,0,38.85,213.37Z" transform="translate(-0.04 -0.69)"/></g><g class="j"><path class="k" d="M66.64,213.37H71c0-2.09.31-4,1.71-5.38a7.49,7.49,0,0,1,4-2.08,5.09,5.09,0,0,0-1.4-.14c-2.5.27-4.18.72-5.65,2A8.42,8.42,0,0,0,66.64,213.37Z" transform="translate(-0.04 -0.69)"/></g><circle class="f" cx="25.03" cy="160.49" r="4.55"/><path d="M26.48,158.48c-3.48-1.62-6.26,3.49-2.82,5.32s6.13-3.32,2.82-5.32c-1.7-1-.26-3.74,1.44-2.72a6.1,6.1,0,1,1-8.23,2.53h0a6.21,6.21,0,0,1,8.23-2.52C29.73,156.62,28.28,159.35,26.48,158.48Z" transform="translate(-0.04 -0.69)"/><path d="M20.13,160.28.81,150a1.53,1.53,0,0,1-.56-2.1,1.54,1.54,0,0,1,2-.62l19.31,10.24a1.54,1.54,0,0,1,.5,2.12A1.52,1.52,0,0,1,20.13,160.28Z" transform="translate(-0.04 -0.69)"/><path class="f" d="M86.28,158.48a7.4,7.4,0,0,1,3.85,7.12c-.21,2.19-3.63,2.19-3.42,0a4.06,4.06,0,0,0-2.14-4.12C82.58,160.4,84.33,157.48,86.28,158.48Z" transform="translate(-0.04 -0.69)"/><path class="f" d="M90.21,170.73v4.11a1.71,1.71,0,0,1-3.42,0v-4.11a1.71,1.71,0,0,1,3.42,0Z" transform="translate(-0.04 -0.69)"/><path class="f" d="M77.42,208a1.54,1.54,0,1,1-1.54,1.54A1.54,1.54,0,0,1,77.42,208Z" transform="translate(-0.04 -0.69)"/><path class="f" d="M48.81,207.48A1.54,1.54,0,1,1,47.27,209,1.54,1.54,0,0,1,48.81,207.48Z" transform="translate(-0.04 -0.69)"/><path class="l" d="M77.35,11.23a6.4,6.4,0,0,1,8.5,2.17l.74,1.1,1.08-.78a6.41,6.41,0,0,1,8.72.92,6.73,6.73,0,0,1-1.26,9.67L84.55,31.93a1.48,1.48,0,0,1-2.09-.37L75.18,20.74A6.72,6.72,0,0,1,77.35,11.23Z" transform="translate(-0.04 -0.69)"/><path class="l" d="M32.92,2a6.42,6.42,0,0,1,8.73.87l.9,1,.94-.93a6.4,6.4,0,0,1,8.76-.4,6.72,6.72,0,0,1,.21,9.75l-9.32,9.12A1.47,1.47,0,0,1,41,21.36L32.2,11.75A6.73,6.73,0,0,1,32.92,2Z" transform="translate(-0.04 -0.69)"/><path class="l" d="M43.5,44.64a6.41,6.41,0,0,1,8.67-1.32l1.11.73L54,42.91a6.42,6.42,0,0,1,8.39-2.56A6.72,6.72,0,0,1,65,49.75L58.2,60.9a1.47,1.47,0,0,1-2.07.47L45.21,54.25A6.73,6.73,0,0,1,43.5,44.64Z" transform="translate(-0.04 -0.69)"/></svg>