<svg xmlns="http://www.w3.org/2000/svg" viewBox="0 0 64 64"><defs><style>.cls-1{fill:none;}.cls-2{fill:#181b21;fill-opacity:0.15;}.cls-11,.cls-12,.cls-13,.cls-14,.cls-15,.cls-16,.cls-2,.cls-3,.cls-4,.cls-5,.cls-6,.cls-7,.cls-8,.cls-9{fill-rule:evenodd;}.cls-3{fill:#385661;}.cls-4{fill:#598291;}.cls-5{fill:#d3e8ef;}.cls-6{fill:#fff;}.cls-7{fill:#7eaaba;}.cls-8{fill:#0b87e8;}.cls-9{fill:#57b6ff;}.cls-10{fill:#008bf6;}.cls-11{fill:#3c942c;}.cls-12{fill:#82e371;}.cls-13{fill:#006cbf;}.cls-14{fill:#bdd6de;}.cls-15{fill:#1e2432;}.cls-16{fill:#2d3956;}</style></defs><g id="Layer_1" data-name="Layer 1"><rect class="cls-1" width="64" height="64"/></g><g id="Layer_2" data-name="Layer 2"><g id="Shadow"><path class="cls-2" d="M35.6,62.22c4.06,0,7.35.39,7.35.89S39.66,64,35.6,64s-7.34-.41-7.34-.89S31.54,62.22,35.6,62.22Z"/></g><g id="Hand_-_Behind" data-name="Hand - Behind"><path class="cls-3" d="M29.31,41.42c-4-3-10.18-6.1-15.3-6.29L12.75,41.5c4.73-.41,11.05.32,14.92,2.27Z"/><path class="cls-4" d="M22.27,38.3a12.61,12.61,0,0,0-6.09-1.78l-.35,1.76A33.79,33.79,0,0,1,22.27,38.3Z"/><path class="cls-4" d="M14.66,33.61A4.83,4.83,0,1,1,9.39,38,4.83,4.83,0,0,1,14.66,33.61Z"/><path class="cls-5" d="M14.58,34.41A4,4,0,1,1,10.18,38,4,4,0,0,1,14.58,34.41Z"/><path class="cls-6" d="M14.58,34.41a4,4,0,0,1,3.62,4.4,4.82,4.82,0,0,1-.35,1.33,6.89,6.89,0,0,1-2.46.17c-2.45-.23-4.42-1.65-4.92-3.38A4,4,0,0,1,14.58,34.41Z"/><path class="cls-4" d="M8.53,34a4.09,4.09,0,0,1-.69-1,2.63,2.63,0,0,1-.06-2.29c.66-1.19,3.25-2.33,4.12-.87a20.84,20.84,0,0,0,3.32,4.05A5.33,5.33,0,0,1,17,38a3.92,3.92,0,0,1-2,3,20.29,20.29,0,0,0-2.49,1.56,20,20,0,0,0-2.2,2c-.87.89-2.33.64-3.31.08a3.17,3.17,0,0,1-1.59-2,1.48,1.48,0,0,1,0-.35,3.07,3.07,0,0,1-1.59-1.56,3,3,0,0,1-.11-2.72A13.56,13.56,0,0,1,8.53,34Z"/><path class="cls-5" d="M14.71,34.39a20.67,20.67,0,0,1-3.44-4.2c-.51-.86-2.42.09-2.83.85-.52,1,.32,2.38,1.05,2.82a1.88,1.88,0,0,1,1.3,0A13.81,13.81,0,0,0,4.32,38.5a2.5,2.5,0,0,0,1.23,3.16,5.52,5.52,0,0,1,3.1-3.22c-.22-.24-.32-.32-.54-.55A.72.72,0,0,1,8,37a15.5,15.5,0,0,1,2.54,3.07c-.58,0-1.18-.77-1.55-1.23a4.88,4.88,0,0,0-2.76,2.87c-.8,1.88,2.47,3.53,3.55,2.41a16.86,16.86,0,0,1,4.86-3.7C16.42,39.45,17.2,36.87,14.71,34.39Z"/><path class="cls-6" d="M14.71,34.39a20.67,20.67,0,0,1-3.44-4.2c-.51-.86-2.42.09-2.83.85-.52,1,.32,2.38,1.05,2.82a1.88,1.88,0,0,1,1.3,0A13.81,13.81,0,0,0,4.32,38.5a1.74,1.74,0,0,0,1.6,2.33,5.31,5.31,0,0,1,2.73-2.39c-.22-.24-.32-.32-.54-.55A.72.72,0,0,1,8,37a15.5,15.5,0,0,1,2.54,3.07c-.58,0-1.18-.77-1.55-1.23a4.88,4.88,0,0,0-2.76,2.87c.24,1.7,2.4,2.3,3,1.72a26.27,26.27,0,0,1,5.43-4A2.85,2.85,0,0,0,16.21,37,4.9,4.9,0,0,0,14.71,34.39Z"/></g><g id="Body"><path class="cls-4" d="M27.91,53.05A1.54,1.54,0,0,1,27,52a21.32,21.32,0,0,1-.39-3c0-.42,0-.84-.05-1.25a1.52,1.52,0,0,1,.73-1.49,12.64,12.64,0,0,1,3.52-1l.95-.18h.15l.14,0c.31.09.62.18.92.25a13.37,13.37,0,0,1,3.44,1.27,1.52,1.52,0,0,1,.61,1.55q-.06.61-.15,1.26a23.05,23.05,0,0,1-.61,3,1.72,1.72,0,0,1-1,1A10.6,10.6,0,0,1,27.91,53.05Z"/><path class="cls-5" d="M28.2,52.42a1,1,0,0,1-.5-.58,20.76,20.76,0,0,1-.42-4.14.85.85,0,0,1,.39-.86,16.34,16.34,0,0,1,4.25-1.06,16.48,16.48,0,0,1,4.14,1.4.86.86,0,0,1,.32.89,20.59,20.59,0,0,1-.73,4.07,1,1,0,0,1-.54.54A9.68,9.68,0,0,1,28.2,52.42Z"/><path class="cls-6" d="M28.43,46.51a27.66,27.66,0,0,1,3.48-.75l-.31,7.42a9.79,9.79,0,0,1-2.8-.51C28.61,50.65,28.49,48.56,28.43,46.51Z"/><path class="cls-4" d="M26.08,51a2.57,2.57,0,0,1-1.33-1.65,31.31,31.31,0,0,1-.58-4.5c0-.63-.06-1.27-.07-1.9a2.24,2.24,0,0,1,1.11-2.23,18.89,18.89,0,0,1,5.31-1.49C31,39.13,31.47,39,32,39l.22,0,.21.06c.46.13.93.24,1.4.36A20,20,0,0,1,39,41.26a2.3,2.3,0,0,1,.94,2.33c-.06.62-.13,1.25-.22,1.89a33.36,33.36,0,0,1-.94,4.44,2.5,2.5,0,0,1-1.46,1.54A15.9,15.9,0,0,1,26.08,51Z"/><path class="cls-4" d="M26.53,50a1.47,1.47,0,0,1-.73-.89,31.25,31.25,0,0,1-.62-6.22,1.23,1.23,0,0,1,.58-1.3c1.26-.72,4-1.21,6.4-1.62,2.38.6,5.05,1.31,6.25,2.11a1.26,1.26,0,0,1,.48,1.35,32.34,32.34,0,0,1-1.13,6.15,1.41,1.41,0,0,1-.8.83A14.81,14.81,0,0,1,26.53,50Z"/><path class="cls-7" d="M26.53,50a1.47,1.47,0,0,1-.73-.89,31.25,31.25,0,0,1-.62-6.22,1.23,1.23,0,0,1,.58-1.3c1.26-.72,4-1.21,6.4-1.62.89.22,1.82.46,2.7.71l-.75,9.45a1.75,1.75,0,0,1-1.57,1A14.56,14.56,0,0,1,26.53,50Z"/><path class="cls-5" d="M25.32,46.05c-.1-1.06-.13-2-.16-3.14a1.24,1.24,0,0,1,.59-1.3c1.25-.71,4-1.21,6.39-1.62,2.38.6,5.06,1.32,6.25,2.12a1.23,1.23,0,0,1,.48,1.34c-.11,1.11-.21,2.06-.4,3.11C34,47.34,29.51,47.66,25.32,46.05Z"/><path class="cls-6" d="M25.32,46.05c-.1-1.06-.13-2-.16-3.14a1.24,1.24,0,0,1,.59-1.3c1.25-.71,4-1.21,6.39-1.62.85.21,1.75.44,2.59.69l-.27,5.17c0,.66-.21,1.14-.48,1.28A19.9,19.9,0,0,1,25.32,46.05Z"/><path class="cls-6" d="M29.6,43.92a.78.78,0,0,1,.8-.74l1.09,0a.78.78,0,0,1,.74.81l-.09,2.26a2.2,2.2,0,0,1-.86,1.78,3.36,3.36,0,0,1-2.09.53,3.23,3.23,0,0,1-2-.7,2.26,2.26,0,0,1-.72-1.86l.09-2.25a.76.76,0,0,1,.8-.74l1.08,0a.78.78,0,0,1,.75.81Z"/><path class="cls-8" d="M27.31,43.59l1.06,0a.27.27,0,0,1,.25.26L28.54,46a.84.84,0,0,0,.14.6.8.8,0,0,0,.59.2.74.74,0,0,0,.57-.14.9.9,0,0,0,.2-.59L30.13,44a.23.23,0,0,1,.25-.23l1.06,0a.3.3,0,0,1,.25.25l-.09,2.24A1.7,1.7,0,0,1,31,47.63a2.65,2.65,0,0,1-1.74.42,2.72,2.72,0,0,1-1.71-.55A1.65,1.65,0,0,1,27,46.08l.09-2.23A.26.26,0,0,1,27.31,43.59Z"/><path class="cls-9" d="M27.31,43.72a.12.12,0,0,0-.13.11l-.09,2.24a1.61,1.61,0,0,0,.5,1.33,2.49,2.49,0,0,0,1.63.52l0-1a1,1,0,0,1-.66-.25.91.91,0,0,1-.17-.69l.09-2.11a.14.14,0,0,0-.12-.13Z"/></g><g id="Float"><path class="cls-10" d="M34.22,54.7a9.9,9.9,0,0,1,2.3-.26c.76,0,1.26.2,1.33.58s-.29.76-1,1.08a11.25,11.25,0,0,1-2.22.7,9.85,9.85,0,0,1-2.3.26c-.75,0-1.26-.2-1.33-.58s.3-.76,1-1.07A10.46,10.46,0,0,1,34.22,54.7Zm2.29.42a9.78,9.78,0,0,0-2.15.25,10.23,10.23,0,0,0-2.07.64,3.6,3.6,0,0,0-.6.32,2.38,2.38,0,0,0,.67.05,10.51,10.51,0,0,0,2.16-.25,9.43,9.43,0,0,0,2.06-.66,2.66,2.66,0,0,0,.62-.32A4.73,4.73,0,0,0,36.51,55.12Z"/><path class="cls-10" d="M34.74,57.15a5.76,5.76,0,0,1,1.4-.13c.47,0,.81.18.85.44s-.17.52-.61.74a5.75,5.75,0,0,1-1.33.44,4.94,4.94,0,0,1-1.4.13c-.47,0-.81-.17-.86-.44s.18-.52.61-.73A5.24,5.24,0,0,1,34.74,57.15Zm.07.35c-.73.18-1.56.53-1.53.69s1,.16,1.68,0,1.56-.52,1.52-.7S35.6,57.31,34.81,57.5Z"/></g><g id="Bow_Tie" data-name="Bow Tie"><path class="cls-11" d="M30.46,41.18l-.76.93a8.4,8.4,0,0,0,2.18,3.1c.31.27.58.42.93.24A5.76,5.76,0,0,0,35,42.74a.64.64,0,0,0-.4-.88A10.87,10.87,0,0,0,30.46,41.18Z"/><path class="cls-12" d="M33.94,43.47a4.75,4.75,0,0,1-1.34,1.47.12.12,0,0,1-.08,0,.88.88,0,0,1-.25-.18,10.43,10.43,0,0,1-1.87-2.41l.37.13a3.88,3.88,0,0,0,1.11,1.07,7,7,0,0,1-.35-.8C32.32,43,33.12,43.25,33.94,43.47Z"/><path class="cls-11" d="M29.57,40.85l-.17,1a6.13,6.13,0,0,1-2.91,1c-.32,0-.52,0-.58-.39a6.09,6.09,0,0,1,.23-2.29.64.64,0,0,1,.75-.51A8.14,8.14,0,0,1,29.57,40.85Z"/><path class="cls-12" d="M26.53,40.4a6,6,0,0,0-.21,1.94.35.35,0,0,0,0,.06.58.58,0,0,0,.23,0,7.82,7.82,0,0,0,2.36-.76l-.25-.12a2.7,2.7,0,0,1-1.19.18,5.37,5.37,0,0,0,.66-.44A18.28,18.28,0,0,1,26.53,40.4Z"/><path class="cls-11" d="M31.54,41.85a4.61,4.61,0,0,1-.78,1.33,2.5,2.5,0,0,1-2.72-1,4.49,4.49,0,0,1,.28-1.65,1,1,0,0,1,.83-.16,9.05,9.05,0,0,1,2.09.75C31.66,41.41,31.65,41.6,31.54,41.85Z"/><path class="cls-12" d="M28.52,41.48a4.83,4.83,0,0,0-.06.57,2.21,2.21,0,0,0,2.05.73,4,4,0,0,0,.35-.49A5,5,0,0,1,28.52,41.48Z"/></g><g id="Hand_-_Front" data-name="Hand - Front"><path class="cls-3" d="M36.83,43.7A13.36,13.36,0,0,1,26,50.24l2.47,6.2c4.22-2.17,9.87-6.15,10.89-11.1C39.93,42.5,37.46,42.71,36.83,43.7Z"/><path class="cls-4" d="M29.69,50.59,30.57,52a18.18,18.18,0,0,0,5.72-5.1,2.7,2.7,0,0,0-1.49.51A15.78,15.78,0,0,1,29.69,50.59Z"/><path class="cls-4" d="M29.89,49.69a4.17,4.17,0,0,1,.54,5.75,3.89,3.89,0,0,1-5.52.91,4.19,4.19,0,0,1-.55-5.76A3.88,3.88,0,0,1,29.89,49.69Z"/><path class="cls-5" d="M29.48,50.24A3.48,3.48,0,0,1,30,55a3.23,3.23,0,0,1-4.6.76A3.49,3.49,0,0,1,24.9,51,3.21,3.21,0,0,1,29.48,50.24Z"/><path class="cls-6" d="M29.48,50.24a3.35,3.35,0,0,1,1.09,3.48,3.1,3.1,0,0,1-1.54.51c0-1.71-.77-4.15-3.47-3.93A3.16,3.16,0,0,1,29.48,50.24Z"/><path class="cls-4" d="M18,56.06l-.09-.18a2.16,2.16,0,0,1-.15-1.82c.57-1.3,2.43-1.42,3.63-1.33h.24a7.62,7.62,0,0,0,1.71-1.3,1.46,1.46,0,0,0-.3-.17,2.72,2.72,0,0,1-1.45-2.57,2.63,2.63,0,0,1,1.43-2,1.68,1.68,0,0,1,2.12.25A21,21,0,0,0,28,49.88c.7.67.37,1.62-.18,2.38l0,.66a2.17,2.17,0,0,1-.7,3c-1.25.93-3.14,1.31-4.63,1.93-.32.33-.46.43-1,.93-1.57,1.36-4-.6-3.64-2.45A2,2,0,0,1,18,56.06Z"/><path class="cls-5" d="M27.56,50.33a25.2,25.2,0,0,1-2.95-3c-.53-.66-2.35.09-2.5,1.44a2.16,2.16,0,0,0,1.14,2,11.78,11.78,0,0,1,1.9,1.37,2.75,2.75,0,0,1-1.27-.45c-1.67,1.94-5,2.64-5.46,4.79a1.88,1.88,0,0,0,2.64,2c.39-.25,1.88-1.9,3.55-3.29a6.89,6.89,0,0,1-1.67,2.13c1.57-.86,3.74-1.06,4.76-2.71C28.55,53.21,28.77,51.47,27.56,50.33ZM18.31,55.5c.51-1.06,1.43-1.58,2.82-2.31C18.81,53,17.58,54.16,18.31,55.5Z"/><path class="cls-6" d="M26.16,51.86c-.71-.68-2.6-1.91-2.66-2.74-.05-.56.51-1.81,1.11-1.81-.53-.66-2.35.09-2.5,1.44a2.16,2.16,0,0,0,1.14,2A10.38,10.38,0,0,1,25,52,1.3,1.3,0,0,0,26.16,51.86ZM25,52.11a3.83,3.83,0,0,1-1.1-.43c-1.66,1.94-5,2.64-5.46,4.78,0,.71,1.71,1.54,2.63.76s3.28-3.49,4.82-4.29A1.43,1.43,0,0,1,25,52.11ZM18.31,55.5c.51-1.06,1.43-1.58,2.82-2.31C18.81,53,17.58,54.16,18.31,55.5Z"/></g><g id="Head"><path class="cls-4" d="M19.22,17.14l5.24.54L19.92,30.54l-4.38-3.38a1.84,1.84,0,0,1-.77-1.45,14,14,0,0,1,2.9-8.06A1.49,1.49,0,0,1,19.22,17.14Z"/><path class="cls-5" d="M19.38,28.72l3.55-10.08c-.47,0-4.12-.46-4.28-.38a.5.5,0,0,0-.1.11,12.84,12.84,0,0,0-2.69,7.33.64.64,0,0,0,.32.54Z"/><path class="cls-6" d="M19.38,28.72l.25-.7-3.35-2.28c-.24-.17-.23-1.23-.13-2.35a9.58,9.58,0,0,0-.28,2.31.65.65,0,0,0,.33.54Zm1.5-4.24,2.06-5.82c-.46-.05-4.12-.47-4.28-.38s-.08.09-.1.1a12.58,12.58,0,0,0-1.87,3.36Z"/><path class="cls-5" d="M17.44,20.1l1.14,1.52a.78.78,0,0,1,.11.75,28.49,28.49,0,0,0-1,4.06c-.06.29-.09.58-.13.87L17,26.86l.09-.56a29.83,29.83,0,0,1,1-4.15.21.21,0,0,0,0-.16l-1-1.3C17.22,20.5,17.32,20.31,17.44,20.1Z"/><path class="cls-7" d="M17.29,20.37l1,1.33a.79.79,0,0,1,.14.74,25.07,25.07,0,0,0-1,4.06l-.09.61-.55-.44a2.09,2.09,0,0,1,.05-.32,27,27,0,0,1,1-4.14.16.16,0,0,0,0-.15L17,21A.94.94,0,0,1,17.29,20.37Z"/><path class="cls-4" d="M43.2,4.32c3.76,3,4.28,7.08,2.93,11.48l-1.3-.4c1.19-3.85.85-7.37-2.47-10Z"/><path class="cls-11" d="M41.77,0a4.19,4.19,0,1,1-4.62,3.71A4.19,4.19,0,0,1,41.77,0Z"/><path class="cls-11" d="M41.68.87A3.34,3.34,0,1,1,38,3.82,3.35,3.35,0,0,1,41.68.87Z"/><path class="cls-12" d="M44.13,2.42a3.2,3.2,0,0,1,.5,2.13A3.35,3.35,0,0,1,41,7.5a3.31,3.31,0,0,1-2.76-2.13A3.29,3.29,0,0,0,40.64,6.9,3.32,3.32,0,0,0,44.32,4,3,3,0,0,0,44.13,2.42ZM40.9,1.19c1.14-.13,2,.54,1.9,1.49a2.53,2.53,0,0,1-2.28,2c-1.13.13-2-.54-1.88-1.49A2.57,2.57,0,0,1,40.9,1.19Z"/><path class="cls-13" d="M41.84,18.35c-1-.51-4.48-2.29-4.22-3.75A11.44,11.44,0,0,1,40,9.78c.93-1,4.45.57,5.46,1.05s4.45,2.25,4.24,3.62a11.9,11.9,0,0,1-2.3,4.87C46.45,20.42,42.89,18.85,41.84,18.35Z"/><path class="cls-13" d="M48.73,14.32c-.19-.77-3-2.26-3.69-2.61a19.76,19.76,0,0,0-2.34-1,5,5,0,0,0-2-.31,10.57,10.57,0,0,0-2.1,4.29c0,.35,1.18,1.26,1.46,1.45a15.59,15.59,0,0,0,6,2.5,1.68,1.68,0,0,0,.6-.05A10.32,10.32,0,0,0,48.73,14.32Z"/><path class="cls-9" d="M45,11.71a19.76,19.76,0,0,0-2.34-1,5,5,0,0,0-2-.31,10.57,10.57,0,0,0-2.1,4.29c0,.14.25.43.33.52a13,13,0,0,0,3.33,2.19Z"/><path class="cls-4" d="M31.69,42.27A61.52,61.52,0,0,1,24,38.59a29.36,29.36,0,0,1-5.8-4.13c-1.24-1.21-2.63-2.95-2.36-4.88C16.59,23.94,20,15.5,23.5,11c1.33-1.71,4.14-1.69,6-1.53A37,37,0,0,1,36,10.77a70,70,0,0,1,7.35,2.53,67,67,0,0,1,7,3.28A36.84,36.84,0,0,1,56,20.19c1.46,1.18,3.48,3.11,3.26,5.27-.58,5.65-4,14.11-7.36,18.68C50.79,45.7,48.57,46,46.85,46a28.61,28.61,0,0,1-7.06-1A63.54,63.54,0,0,1,31.69,42.27Z"/><path class="cls-14" d="M32.19,41c-5.33-2.15-10.39-5-13.09-7.56-1.37-1.33-2.13-2.63-2-3.74.7-5.23,3.95-13.5,7.37-17.89.73-.95,2.5-1.23,4.86-1a51.15,51.15,0,0,1,13.53,3.72,51.53,51.53,0,0,1,12.31,6.7c1.84,1.49,2.92,2.92,2.8,4.12-.58,5.54-4,13.77-7.1,18-.67.9-2.1,1.3-4,1.31C43.11,44.68,37.52,43.18,32.19,41Z"/><path class="cls-6" d="M18.93,22.67a41.16,41.16,0,0,1,5.55-10.83c.73-.95,2.49-1.23,4.86-1a51.19,51.19,0,0,1,13.52,3.72,51.33,51.33,0,0,1,12.31,6.7C57,22.73,58.09,24.16,58,25.36A41.25,41.25,0,0,1,54.46,37C36.55,36.2,21.31,25.64,18.93,22.67ZM32.19,41c-5.33-2.15-10.39-5-13.09-7.56-1.37-1.33-2.13-2.63-2-3.74,0-.21.05-.43.08-.63a3.18,3.18,0,0,0,.25.88,6.8,6.8,0,0,0,1.94,2.77c2.72,2.57,7.8,5.34,13.12,7.49s10.91,3.67,14.66,3.7a6.64,6.64,0,0,0,3.33-.65,2.84,2.84,0,0,0,.77-.45c-.11.18-.25.35-.36.51-.67.91-2.11,1.3-4,1.32C43.11,44.68,37.52,43.18,32.19,41Z"/><path class="cls-14" d="M41.43,25.39a10.07,10.07,0,0,0,2.23-2.88.46.46,0,0,1,.57-.2,68.36,68.36,0,0,1,9.23,5.21c.47.32.82.6.62,1.3a48,48,0,0,1-6,13c-.37.51-2,.64-2.54.66a23.76,23.76,0,0,1-6.06-.85,50.36,50.36,0,0,1-7.33-2.43,49.31,49.31,0,0,1-6.92-3.4,23.2,23.2,0,0,1-4.91-3.63c-.35-.37-1.45-1.63-1.36-2.24a47.81,47.81,0,0,1,4.85-13.48c.35-.62.79-.58,1.36-.49a35.6,35.6,0,0,1,7.64,1.71.44.44,0,0,1,.27.54,18.23,18.23,0,0,0-.7,4.14C32.36,23.81,40.26,26.56,41.43,25.39Z"/><path class="cls-15" d="M35.5,25.84c1.91.66,4.22,1.2,4.86.66a16.59,16.59,0,0,0,3-4.16.43.43,0,0,1,.57-.21,63.69,63.69,0,0,1,9,5.06c.47.33.82.61.61,1.3a48,48,0,0,1-6,13c-.36.51-2,.64-2.54.65a23.31,23.31,0,0,1-6.06-.83,53.75,53.75,0,0,1-7.33-2.42,51.6,51.6,0,0,1-6.92-3.4,24.13,24.13,0,0,1-4.91-3.64c-.35-.35-1.44-1.61-1.36-2.23a47.43,47.43,0,0,1,4.85-13.47c.35-.64.79-.58,1.36-.49a41.56,41.56,0,0,1,8.24,2,.45.45,0,0,1,.26.54,50.46,50.46,0,0,0-1.26,5C31.81,24,33.87,25.29,35.5,25.84Z"/><path class="cls-16" d="M35.5,25.84c1.91.66,4.22,1.2,4.86.66a16.59,16.59,0,0,0,3-4.16.43.43,0,0,1,.57-.21,63.69,63.69,0,0,1,9,5.06c.2.13.19.61.06,1a63,63,0,0,1-2.87,6.56c-.87,1.18-1.32,1.1-2.92,1-6.41-.54-19.91-6.06-24.88-10.16-.36-.31-1.53-1.36-1.5-1.81,0-.29.06-.61.08-.92a32.42,32.42,0,0,1,3.3-7.21l.38.06a41.24,41.24,0,0,1,8.24,2,.45.45,0,0,1,.26.54c-.58,2-1.25,4.67-1.25,5C31.81,24,33.87,25.29,35.5,25.84ZM48.22,40.37c-.25.4-.5.76-.74,1.11-.37.51-2,.64-2.55.66-6.79.16-20.48-5.43-25.21-10.3-.36-.36-1.45-1.62-1.36-2.23.06-.42.14-.86.25-1.31,0,0,0,.07,0,.1-.09.63,1,1.9,1.39,2.25C24.8,35.55,38.7,41.23,45.59,41.1c.51,0,2.21-.13,2.57-.64A.24.24,0,0,0,48.22,40.37Z"/><path class="cls-12" d="M24.81,22.38a13.05,13.05,0,0,0-1.6,4c-.46,2.09,3.15,3.55,4.16,1.68a18,18,0,0,0,1.6-4C29.53,22,25.92,20.57,24.81,22.38Zm20.48,8.25a13.39,13.39,0,0,1-1.39,3.62,1.77,1.77,0,0,1-.5.59,7.66,7.66,0,0,0-2.88.17,1.82,1.82,0,0,1-1-2.06,20,20,0,0,1,1.6-4C42.15,27.08,45.74,28.56,45.29,30.63Z"/><path class="cls-12" d="M32,33.16a13.84,13.84,0,0,0,5.55.54C37.3,37.52,32.36,39.55,32,33.16Z"/><path class="cls-14" d="M35.14,11.91V12a8.66,8.66,0,0,0,.32,2.49,20.73,20.73,0,0,0,5.34,2.83,20.94,20.94,0,0,0,5.87,1.49,9,9,0,0,0,1.93-1.61l.06-.06.61.33c-.09.08-.16.17-.25.24a7.91,7.91,0,0,1-2.35,1.86A20.81,20.81,0,0,1,40.52,18a19.47,19.47,0,0,1-5.57-3,7.37,7.37,0,0,1-.49-2.93v-.38C34.68,11.78,34.92,11.85,35.14,11.91Z"/><path class="cls-7" d="M34.8,11.82c0,.15,0,.3,0,.44a9.67,9.67,0,0,0,.34,2.53,21.06,21.06,0,0,0,5.51,2.9,21,21,0,0,0,6.06,1.55,9.41,9.41,0,0,0,2-1.63c.09-.11.19-.21.28-.3l.62.33c-.16.17-.32.33-.46.49A7.74,7.74,0,0,1,46.72,20a21,21,0,0,1-6.34-1.59,21.59,21.59,0,0,1-5.76-3.08,7.88,7.88,0,0,1-.51-3c0-.25,0-.47,0-.72C34.33,11.71,34.57,11.75,34.8,11.82Z"/><path class="cls-4" d="M52.38,42.74c-1.62-.73-.58-3.64-.11-3.7l1.21-2.1c-1-.86,1.71-6.76,3.69-5.43L60,33.39a1.56,1.56,0,0,1,.59,1.55,16.15,16.15,0,0,1-3.21,7.49,2.2,2.2,0,0,1-2.16.86Z"/><path class="cls-14" d="M52.43,41.79c-2.21-.25,2-11.13,4.11-9.51l2.81,1.86a.75.75,0,0,1,.26.76,15,15,0,0,1-3,6.89,1.36,1.36,0,0,1-1.39.57Z"/><path class="cls-6" d="M52.67,36.88c1-2.74,2.78-5.46,3.89-4.6l2.8,1.86a.75.75,0,0,1,.27.76,14.44,14.44,0,0,1-1.23,4Z"/><path class="cls-14" d="M57.54,36.23a7.08,7.08,0,0,0-.32.68c-.47.13-2,.32-2.38.48a.3.3,0,0,0-.12.13c-.47.91-1.39,3-1.94,4.34l-.54-.1h0c.52-1.23,1.56-3.55,2.07-4.56a.93.93,0,0,1,.41-.32C55.24,36.68,57,36.4,57.54,36.23Z"/><path class="cls-7" d="M57.48,36.42a7.08,7.08,0,0,0-.32.68c-.48.13-1.84.28-2.16.44a.49.49,0,0,0-.12.13c-.45.88-1.34,2.92-1.9,4.22l-.58-.12c.54-1.24,1.53-3.49,2-4.46a.89.89,0,0,1,.41-.33C55.4,36.82,56.89,36.58,57.48,36.42Z"/><path class="cls-6" d="M58.78,34.27c.71.14.6,2-.25,4.1s-2.1,3.7-2.8,3.55-.6-2,.24-4.1S58.08,34.12,58.78,34.27Z"/><path class="cls-7" d="M58.9,34.62c.65.13.55,1.85-.24,3.85S56.69,42,56,41.82,55.45,40,56.24,38,58.22,34.47,58.9,34.62Z"/><path class="cls-14" d="M58.52,36.06c.4.09.3,1.23-.24,2.56S57,41,56.57,40.85s-.3-1.22.24-2.55S58.12,36,58.52,36.06Z"/><path class="cls-7" d="M57.83,36.9c.28.06.23.77-.09,1.6s-.82,1.45-1.11,1.41-.23-.79.09-1.61S57.55,36.84,57.83,36.9Z"/></g></g></svg>