<?xml version="1.0" encoding="utf-8"?>
<!-- Generator: Adobe Illustrator 24.0.1, SVG Export Plug-In . SVG Version: 6.00 Build 0)  -->
<svg version="1.1" xmlns="http://www.w3.org/2000/svg" xmlns:xlink="http://www.w3.org/1999/xlink" x="0px" y="0px"
	 viewBox="0 0 1024 1024" style="enable-background:new 0 0 1024 1024;" xml:space="preserve">
<style type="text/css">
	.st0{fill:#EAF0F7;}
	.st1{opacity:0.8;clip-path:url(#SVGID_2_);}
	.st2{fill:#F1EEED;}
	.st3{clip-path:url(#SVGID_4_);}
	.st4{fill:#d2cec9;}
	.st5{clip-path:url(#SVGID_2_);}
	.st6{fill:#0790E8;}
	.st7{fill:#FFC499;}
	.st8{fill:#FFB599;}
	.st9{fill:#FFFFFF;}
	.st10{fill:#967C69;}
	.st11{fill:#967C69;stroke:#000000;stroke-width:4.5;stroke-linecap:round;stroke-linejoin:round;stroke-miterlimit:10;}
	.st12{fill:#CCC8C0;}
	.st13{opacity:0.5;}
</style>
<g id="Layer_2">
	<path class="st0" d="M884,1024H140C62.7,1024,0,961.3,0,884V140C0,62.7,62.7,0,140,0h744c77.3,0,140,62.7,140,140v744
		C1024,961.3,961.3,1024,884,1024z"/>
</g>
<g id="Box">
</g>
<g id="Layer_2_copy">
	<g>
		<defs>
			<path id="SVGID_1_" d="M884,1024H140C62.7,1024,0,961.3,0,884V140C0,62.7,62.7,0,140,0h744c77.3,0,140,62.7,140,140v744
				C1024,961.3,961.3,1024,884,1024z"/>
		</defs>
		<clipPath id="SVGID_2_">
			<use xlink:href="#SVGID_1_"  style="overflow:visible;"/>
		</clipPath>
		<g class="st1">
			<g>
				<g>
					<g>
						<circle class="st2" cx="512" cy="1331" r="621.6"/>
					</g>
					<g>
						<path d="M512,726.7c333.7,0,604.3,270.5,604.3,604.3S845.7,1935.2,512,1935.2c-333.7,0-604.3-270.5-604.3-604.3
							S178.3,726.7,512,726.7 M512,692c-170.7,0-331.1,66.5-451.8,187.2C-60.5,999.8-127,1160.3-127,1331s66.5,331.2,187.2,451.8
							C180.8,1903.5,341.3,1970,512,1970s331.2-66.5,451.8-187.2c120.7-120.7,187.2-281.2,187.2-451.8s-66.5-331.2-187.2-451.8
							C843.2,758.5,682.7,692,512,692L512,692z"/>
					</g>
				</g>
				<g>
					<defs>
						<circle id="SVGID_3_" cx="512" cy="1331" r="604.3"/>
					</defs>
					<clipPath id="SVGID_4_">
						<use xlink:href="#SVGID_3_"  style="overflow:visible;"/>
					</clipPath>
					<g class="st3">
						<g>
							<path class="st4" d="M637.4,739.8C828.1,841.4,958,1042.2,958,1273.4c0,333.7-270.5,604.3-604.3,604.3
								c-43,0-84.9-4.5-125.4-13.1c84.6,45,181.1,70.6,283.6,70.6c333.7,0,604.3-270.5,604.3-604.3
								C1116.3,1040.3,910.9,797.5,637.4,739.8z"/>
						</g>
						<g>
							<circle class="st4" cx="163.1" cy="1223.1" r="107.9"/>
						</g>
						<g>
							<circle class="st4" cx="634.3" cy="1237.5" r="107.9"/>
						</g>
						<g>
							<circle class="st4" cx="-113.8" cy="1500" r="107.9"/>
						</g>
						<g>
							<circle class="st4" cx="425.7" cy="996.5" r="36"/>
						</g>
						<g>
							<circle class="st4" cx="220.7" cy="1374.1" r="36"/>
						</g>
						<g>
							<circle class="st4" cx="339.4" cy="1744.6" r="36"/>
						</g>
						<g>
							<circle class="st4" cx="91.2" cy="924.6" r="36"/>
						</g>
						<g>
							<circle class="st4" cx="184.7" cy="1852.5" r="115.1"/>
						</g>
						<g>
							<circle class="st4" cx="619.9" cy="1690.7" r="172.6"/>
						</g>
						<g>
							<circle class="st4" cx="932.8" cy="1313" r="68.3"/>
						</g>
					</g>
				</g>
			</g>
		</g>
		<g class="st5">
			<g>
				<g>
					<path class="st6" d="M439.9,1443.5c-7.2,0-13.1-5.8-13.1-13.1v-370.3c0-7.2,5.8-13.1,13.1-13.1h145.5c7.2,0,13.1,5.8,13.1,13.1
						v370.3c0,7.2-5.8,13.1-13.1,13.1H439.9z"/>
				</g>
				<g>
					<path d="M585.4,1060.1v370.3H439.9v-370.3H585.4 M585.4,1034H439.9c-14.4,0-26.1,11.7-26.1,26.1v370.3
						c0,14.4,11.7,26.1,26.1,26.1h145.5c14.4,0,26.1-11.7,26.1-26.1v-370.3C611.5,1045.7,599.8,1034,585.4,1034L585.4,1034z"/>
				</g>
			</g>
			<g>
				<g>
					<g>
						<g>
							<g>
								<g>
									<path class="st6" d="M348.9,1231.2c9.6,8.6,22,13.1,34.1,12.3c1.8-0.1,3.7-0.3,5.5-0.7c11-2.1,20-8.5,25.4-17.9
										c5.4-9.4,6.5-20.8,3.2-31.9c-51-169.3-42.9-282.3-27.1-347.2c16.3-67.2,44.2-97.7,44.4-98c15.3-15.7,13.5-42.6-4.2-59.8
										c-0.5-0.5-1-1-1.5-1.4c-18-16.1-44-16.6-59.3-1.2c-6,6.1-146.2,153.4-34.7,523.7C337.2,1217.5,342.1,1225.1,348.9,1231.2
										L348.9,1231.2z"/>
								</g>
								<g>
									<path d="M420,696.3c-12.1-10.8-29.8-11.3-40.2-0.8c-5.8,5.9-141.1,148.1-31.9,511c1.8,5.9,5.2,11,9.6,15
										c6.3,5.7,14.7,8.9,23.1,8.4c1.2-0.1,2.5-0.2,3.7-0.5c15.4-3,24.1-18.1,19.4-33.8c-51.9-172.3-43.5-287.8-27.3-354.4
										c17.2-70.7,46.5-102.5,47.3-103.3c10.5-10.8,9.3-28.9-2.7-40.6C420.7,696.9,420.4,696.6,420,696.3 M437.4,676.8
										c0.7,0.6,1.3,1.2,2,1.9c23.3,22.6,25.8,58,5.6,79c-1.2,1.4-26.4,30.4-41.5,92.5c-15.4,63.4-23.2,173.8,26.9,340.1
										c4.4,14.8,3,29.8-4.2,42.2c-7.1,12.5-19.1,20.9-33.7,23.7c-2.3,0.5-4.8,0.8-7.2,0.9c-16,1-32.4-5-45.1-16.3
										c-8.9-8-15.4-18.1-18.8-29.3c-47-156.1-56.3-291.9-27.6-403.9c22.3-87.3,60.9-128.1,65.2-132.5
										C379.2,654.9,413.6,655.6,437.4,676.8L437.4,676.8z"/>
								</g>
							</g>
						</g>
					</g>
				</g>
				<g>
					<g>
						<g>
							<g>
								<path class="st7" d="M348.9,1231.2c9.6,8.6,22,13.1,34.1,12.3c1.8-0.1,3.7-0.3,5.5-0.7c11-2.1,20-8.5,25.4-17.9
									c5.4-9.4,6.5-20.8,3.2-31.9c-4.8-15.9-9.2-31.8-13.1-47.4c-0.8-3-2.4-5.7-4.8-7.8c-0.6-0.6-1.3-1.1-2-1.6
									c-3.4-2.2-7.4-2.9-11.1-2.1l-55.5,12.4c-6.9,1.5-10.9,8.3-9.1,15.4c4,15.6,8.4,31.5,13.1,47.1
									C337.2,1217.5,342.1,1225.1,348.9,1231.2z"/>
							</g>
							<g>
								<path d="M390.5,1147.6l-55.5,12.4c3.9,15.1,8.2,30.6,13,46.5c1.8,5.9,5.2,11,9.6,15c6.3,5.7,14.7,8.9,23.1,8.4
									c1.2-0.1,2.5-0.2,3.7-0.5c15.4-3,24.1-18.1,19.4-33.8C398.8,1179.1,394.4,1163.1,390.5,1147.6 M407.9,1128.1
									c4.7,4.2,8,9.6,9.5,15.5c3.9,15.4,8.2,31.1,13,46.8c4.4,14.8,3,29.8-4.2,42.2c-7.1,12.5-19.1,20.9-33.7,23.7
									c-2.3,0.5-4.8,0.8-7.2,0.9c-16,1-32.4-5-45.1-16.3c-8.9-8-15.4-18.1-18.8-29.3c-4.7-15.7-9.2-31.7-13.3-47.7
									c-3.7-14.3,4.2-27.8,18.1-30.9l55.5-12.4c7.3-1.6,15.3-0.1,22.1,4.3C405.3,1125.9,406.6,1127,407.9,1128.1L407.9,1128.1z"/>
							</g>
						</g>
					</g>
				</g>
			</g>
			<g>
				<g>
					<g>
						<g>
							<g>
								<path class="st6" d="M685.9,977.1c-12.9,0-25.5-1.9-37.6-5.6c-44.7-13.7-76.7-61.7-98-146.7c-13.7-54.6-18-105.7-18.2-107.9
									c-1.9-22.2,14.7-41.8,37-43.7c1.1-0.1,2.3-0.1,3.4-0.1c20.8,0,38.5,16.3,40.3,37.1c0,0.5,4.1,47.4,16.2,95.6
									c20.2,80.5,42.9,88.4,43.1,88.4c4.4,1.4,9.2,2.1,14.2,2.1c35.6,0,76.8-35.1,89.7-48.6c7.6-8.1,18.4-12.8,29.6-12.8
									c10.3,0,20.1,3.9,27.6,10.8c7.9,7.4,12.5,17.4,12.9,28.2c0.4,10.8-3.5,21.1-10.8,29C832.3,905.8,765.1,977.1,685.9,977.1z"
									/>
							</g>
							<g>
								<path d="M572.5,686c14.1,0,26.1,10.8,27.3,25.1c0,0.5,4.2,48.3,16.6,97.7c20.7,82.2,45,95.6,51.9,97.7
									c5.9,1.8,12,2.6,18,2.6c48.6,0,98.6-52.1,99.2-52.7c5.4-5.8,12.7-8.7,20.1-8.7c6.7,0,13.4,2.4,18.7,7.3
									c11.1,10.3,11.7,27.7,1.4,38.7c-3,3.3-66.3,70.1-139.6,70.1c-11.1,0-22.4-1.5-33.8-5c-39.9-12.3-69.1-57.2-89.1-137.4
									c-13.4-53.6-17.7-103.7-17.9-105.8c-1.3-15.1,10-28.3,25-29.6C570.9,686.1,571.7,686,572.5,686 M572.5,659.9
									c-1.5,0-3,0.1-4.5,0.2c-29.4,2.5-51.3,28.4-48.9,57.8c0.5,5.6,5,55.7,18.5,110c22.5,89.8,57.4,140.9,106.8,156.1
									c13.3,4.1,27.3,6.2,41.5,6.2c83.3,0,151.3-70.4,158.8-78.4c20.1-21.6,18.9-55.5-2.7-75.7c-9.9-9.3-22.9-14.3-36.5-14.3
									c-14.8,0-29.1,6.2-39.2,17c-10.9,11.4-49.5,44.4-80,44.4c-3.3,0-6.5-0.4-9.4-1.2c-2.5-1.8-19.2-15.7-35.2-79.4
									c-11.8-46.9-15.8-93.1-15.9-93.5C623.5,681.5,600.1,659.9,572.5,659.9L572.5,659.9z"/>
							</g>
						</g>
					</g>
				</g>
			</g>
			<g>
				<g>
					<g>
						<g>
							<path fill="#0578ba" d="M685.9,964c-11.1,0-22.4-1.5-33.8-5c-39.9-12.3-69.1-57.2-89.1-137.4c-13.4-53.6-17.7-103.7-17.9-105.8
								c-1.3-15.1,10-28.3,25-29.6c15.1-1.3,28.3,10,29.6,25l0,0c0,0.5,4.2,48.3,16.6,97.7c20.7,82.2,45,95.6,51.9,97.7
								c53.4,16.4,116.5-49.4,117.2-50.1c10.3-11.1,27.7-11.7,38.7-1.4c11.1,10.3,11.7,27.7,1.4,38.7
								C822.5,897.2,759.3,964,685.9,964z"/>
						</g>
					</g>
				</g>
			</g>
			<g>
				<g>
					<g>
						<g>
							<g>
								<g>
									<path class="st2" d="M436.7,1695.8c-10.2,0-18.5-8.3-18.5-18.5v-222.1c0-10.2,8.3-18.5,18.5-18.5h60.3
										c10.2,0,18.5,8.3,18.5,18.5v222.1c0,10.2-8.3,18.5-18.5,18.5H436.7z"/>
								</g>
								<g>
									<path d="M497.1,1449.7c3,0,5.5,2.5,5.5,5.5v222.1c0,3-2.5,5.5-5.5,5.5h-60.3c-3,0-5.5-2.5-5.5-5.5v-222.1
										c0-3,2.5-5.5,5.5-5.5H497.1 M497.1,1423.6h-60.3c-17.4,0-31.6,14.2-31.6,31.6v222.1c0,17.4,14.2,31.6,31.6,31.6h60.3
										c17.4,0,31.6-14.2,31.6-31.6v-222.1C528.6,1437.8,514.5,1423.6,497.1,1423.6L497.1,1423.6z"/>
								</g>
							</g>
						</g>
					</g>
				</g>
				<g>
					<g>
						<g>
							<g>
								<g>
									<path class="st2" d="M532.7,1695.8c-10.2,0-18.5-8.3-18.5-18.5v-222.1c0-10.2,8.3-18.5,18.5-18.5h54.8
										c10.2,0,18.5,8.3,18.5,18.5v222.1c0,10.2-8.3,18.5-18.5,18.5H532.7z"/>
								</g>
								<g>
									<path d="M587.5,1449.7c3,0,5.5,2.5,5.5,5.5v222.1c0,3-2.5,5.5-5.5,5.5h-54.8c-3,0-5.5-2.5-5.5-5.5v-222.1
										c0-3,2.5-5.5,5.5-5.5H587.5 M587.5,1423.6h-54.8c-17.4,0-31.6,14.2-31.6,31.6v222.1c0,17.4,14.2,31.6,31.6,31.6h54.8
										c17.4,0,31.6-14.2,31.6-31.6v-222.1C619.1,1437.8,604.9,1423.6,587.5,1423.6L587.5,1423.6z"/>
								</g>
							</g>
						</g>
					</g>
				</g>
			</g>
			<g>
				<g>
					<g>
						<g>
							<g>
								<path class="st6" d="M410.7,1058.2c-10.2,0-18.5-8.3-18.5-18.5V739.5c0-57.8,47.1-104.9,104.9-104.9h13.7
									c57.8,0,104.9,47.1,104.9,104.9v300.2c0,10.2-8.3,18.5-18.5,18.5H410.7z"/>
							</g>
							<g>
								<path d="M510.8,647.7c50.7,0,91.8,41.1,91.8,91.8v300.2c0,3-2.5,5.5-5.5,5.5H410.7c-3,0-5.5-2.5-5.5-5.5V739.5
									c0-50.7,41.1-91.8,91.8-91.8H510.8 M510.8,621.5h-13.7c-65,0-118,52.9-118,118v300.2c0,17.4,14.2,31.6,31.6,31.6h186.4
									c17.4,0,31.6-14.2,31.6-31.6V739.5C628.7,674.5,575.8,621.5,510.8,621.5L510.8,621.5z"/>
							</g>
						</g>
					</g>
				</g>
			</g>
			<g>
				<path fill="#0578ba" d="M597.3,708.7L597.3,708.7C597.3,708.7,597.3,708.7,597.3,708.7c-4-11.4-10.3-21.7-18.1-30.5c0,0,0,0,0,0
					c-1-1.1-2-2.1-3-3.2c0,0,0,0,0,0c-1-1-2.1-2-3.1-3c0,0-0.1,0-0.1-0.1c-1.1-1-2.1-1.9-3.2-2.8c0,0-0.1-0.1-0.1-0.1
					c-1.1-0.9-2.2-1.8-3.4-2.7c0,0-0.1-0.1-0.1-0.1c-1.1-0.9-2.3-1.7-3.5-2.5c0,0-0.1-0.1-0.1-0.1c-1.2-0.8-2.4-1.6-3.6-2.4
					c0,0-0.1,0-0.1-0.1c-1.2-0.8-2.5-1.5-3.8-2.2c0,0,0,0-0.1,0c-13.1-7.2-28.1-11.3-44.1-11.3H497c-4.2,0-8.3,0.3-12.4,0.9
					c12.8,1.7,24.7,6.1,35.2,12.5c-2.6,0.1-5.2,0.2-7.9,0.2c-17.1,0-33.5-2.5-49.2-7c-22.4,9-40.4,26.5-50,48.6
					c30.3,13.7,63.8,21.4,99.2,21.4c17.1,0,33.7-1.9,49.8-5.3c1.5,6.6,2.3,13.4,2.3,20.5v300.2c0,3-2.5,5.5-5.5,5.5h38.5
					c3,0,5.5-2.5,5.5-5.5V739.5C602.6,728.7,600.7,718.3,597.3,708.7z"/>
			</g>
			<g>
				<path class="st2" d="M405.2,1026v13.7c0,3,2.5,5.5,5.5,5.5h186.4c3,0,5.5-2.5,5.5-5.5V1026H405.2z"/>
			</g>
			<g>
				<g>
					<g>
						<g>
							<g>
								<g>
									<path class="st8" d="M532.9,1701.3c-10.2,0-18.5-8.3-18.5-18.5v-52.1c0-10.2,8.3-18.5,18.5-18.5h101.4
										c18.9,0,36.6,7.4,50,20.7c13.4,13.4,20.7,31.1,20.7,50c0,10.2-8.3,18.4-18.5,18.4H532.9z"/>
								</g>
								<g>
									<path d="M634.4,1625.2c31.8,0,57.6,25.9,57.6,57.7c0,3-2.5,5.4-5.5,5.4H532.9c-3,0-5.5-2.5-5.5-5.5v-52.1
										c0-3,2.5-5.5,5.5-5.5H634.4 M634.4,1599H532.9c-17.4,0-31.6,14.2-31.6,31.6v52.1c0,17.4,14.2,31.6,31.6,31.6h153.5
										c17.4,0,31.6-14.1,31.6-31.5c0-22.4-8.7-43.4-24.5-59.2S656.7,1599,634.4,1599L634.4,1599z"/>
								</g>
							</g>
						</g>
					</g>
				</g>
				<g>
					<g>
						<g>
							<g>
								<g>
									<path class="st9" d="M537.1,1732.9c-7.7,0-14.8-3.4-19.7-9.3c-4.8-5.9-6.7-13.7-5.2-21.2c2.4-11.7,13-20.2,25.3-20.2h144.3
										c12.3,0,23,8.5,25.3,20.2c1.5,7.6-0.4,15.3-5.2,21.2c-4.9,5.9-12,9.3-19.7,9.3H537.1z"/>
								</g>
								<g>
									<path d="M681.9,1695.2c5.9,0,11.4,4,12.6,9.8c1.6,7.9-4.4,14.9-12.1,14.9H537.1c-7.6,0-13.7-7-12.1-14.9
										c1.2-5.8,6.6-9.8,12.6-9.8H681.9 M681.9,1669.1H537.5c-18.5,0-34.5,12.9-38.1,30.6c-2.3,11.4,0.5,23.1,7.9,32.1
										c7.3,9,18.2,14.1,29.8,14.1h145.3c11.6,0,22.4-5.2,29.8-14.1c7.3-9,10.2-20.7,7.9-32.1
										C716.4,1682,700.4,1669.1,681.9,1669.1L681.9,1669.1z"/>
								</g>
							</g>
						</g>
					</g>
				</g>
				<g>
					<g>
						<g>
							<g>
								<g>
									<path class="st9" d="M535.7,1623c-8.1,0-15.6-3.6-20.7-9.8c-5.1-6.3-7.1-14.4-5.5-22.4c2.5-12.3,13.8-21.3,26.7-21.3h59.2
										c13,0,24.2,9,26.8,21.3c1.6,8-0.4,16.1-5.5,22.4c-5.1,6.3-12.7,9.8-20.7,9.8H535.7z"/>
								</g>
								<g>
									<path d="M595.5,1582.5c6.6,0,12.6,4.4,14,10.8c1.8,8.8-4.9,16.6-13.4,16.6h-60.3c-8.5,0-15.2-7.8-13.4-16.6
										c1.3-6.4,7.4-10.8,14-10.8H595.5 M595.5,1556.4h-59.2c-19.2,0-35.8,13.3-39.5,31.7c-2.4,11.8,0.6,24,8.2,33.3
										c7.6,9.3,18.8,14.6,30.8,14.6H596c12,0,23.3-5.3,30.9-14.7c7.6-9.3,10.6-21.4,8.1-33.3
										C631.3,1569.7,614.6,1556.4,595.5,1556.4L595.5,1556.4z"/>
								</g>
							</g>
						</g>
					</g>
				</g>
			</g>
			<g>
				<g>
					<g>
						<g>
							<g>
								<g>
									<path class="st8" d="M434.1,1701.3c-10.2,0-18.5-8.3-18.5-18.5v-52.1c0-10.2,8.3-18.5,18.5-18.5h101.4
										c18.9,0,36.6,7.4,50,20.7c13.4,13.4,20.7,31.1,20.7,50c0,10.2-8.3,18.4-18.5,18.4H434.1z"/>
								</g>
								<g>
									<path d="M535.6,1625.2c31.8,0,57.6,25.9,57.6,57.7c0,3-2.5,5.4-5.5,5.4H434.1c-3,0-5.5-2.5-5.5-5.5v-52.1
										c0-3,2.5-5.5,5.5-5.5H535.6 M535.6,1599H434.1c-17.4,0-31.6,14.2-31.6,31.6v52.1c0,17.4,14.2,31.6,31.6,31.6h153.5
										c17.4,0,31.6-14.1,31.6-31.5c0-22.4-8.7-43.4-24.5-59.2C578.9,1607.8,557.9,1599,535.6,1599L535.6,1599z"/>
								</g>
							</g>
						</g>
					</g>
				</g>
				<g>
					<g>
						<g>
							<g>
								<g>
									<path class="st9" d="M438.2,1732.9c-7.7,0-14.8-3.4-19.7-9.3c-4.8-5.9-6.7-13.7-5.2-21.2c2.4-11.7,13.1-20.2,25.4-20.2H583
										c12.3,0,23,8.5,25.3,20.2c1.5,7.6-0.4,15.3-5.2,21.2c-4.9,5.9-12,9.3-19.7,9.3H438.2z"/>
								</g>
								<g>
									<path d="M583,1695.2c5.9,0,11.4,4,12.6,9.8c1.6,7.9-4.4,14.9-12.1,14.9H438.2c-7.6,0-13.7-7-12.1-14.9
										c1.2-5.8,6.6-9.8,12.6-9.8H583 M583,1669.1H438.7c-18.5,0-34.5,12.9-38.1,30.6c-2.3,11.4,0.5,23.1,7.9,32.1
										c7.3,9,18.2,14.1,29.8,14.1h145.3c11.6,0,22.4-5.2,29.8-14.1c7.3-9,10.2-20.7,7.9-32.1C617.6,1682,601.5,1669.1,583,1669.1
										L583,1669.1z"/>
								</g>
							</g>
						</g>
					</g>
				</g>
				<g>
					<g>
						<g>
							<g>
								<g>
									<path class="st9" d="M436.9,1623c-8.1,0-15.6-3.6-20.7-9.8c-5.1-6.3-7.1-14.4-5.5-22.4c2.5-12.3,13.8-21.3,26.7-21.3h59.2
										c13,0,24.2,9,26.7,21.3c1.6,8-0.4,16.1-5.5,22.4c-5.1,6.3-12.7,9.8-20.7,9.8H436.9z"/>
								</g>
								<g>
									<path d="M496.6,1582.5c6.6,0,12.6,4.4,14,10.8c1.8,8.8-4.9,16.6-13.4,16.6h-60.3c-8.5,0-15.2-7.8-13.4-16.6
										c1.3-6.4,7.4-10.8,14-10.8H496.6 M496.6,1556.4h-59.2c-19.2,0-35.8,13.3-39.5,31.7c-2.4,11.8,0.6,24,8.1,33.3
										c7.6,9.3,18.8,14.7,30.9,14.7h60.3c12,0,23.3-5.3,30.9-14.7c7.6-9.3,10.6-21.4,8.1-33.3
										C532.4,1569.7,515.8,1556.4,496.6,1556.4L496.6,1556.4z"/>
								</g>
							</g>
						</g>
					</g>
				</g>
			</g>
			<g>
				<g>
					<g>
						<polygon class="st2" points="506.6,757.6 519.9,798.4 562.8,798.4 528.1,823.7 541.4,864.5 506.6,839.3 471.9,864.5 
							485.2,823.7 450.5,798.4 493.4,798.4 						"/>
					</g>
				</g>
			</g>
			<g>
				<g>
					<g>
						<g>
							<g>
								<g>
									<g>
										<g>
											<path class="st7" d="M386.8,529.4c-25.8,0-46.7-21-46.7-46.7c0-25.8,21-46.7,46.7-46.7c25.8,0,46.7,21,46.7,46.7
												C433.6,508.4,412.6,529.4,386.8,529.4z"/>
										</g>
										<g>
											<path d="M386.8,449c18.6,0,33.7,15.1,33.7,33.7s-15.1,33.7-33.7,33.7s-33.7-15.1-33.7-33.7S368.2,449,386.8,449
												 M386.8,422.9c-33,0-59.8,26.8-59.8,59.8c0,33,26.8,59.8,59.8,59.8s59.8-26.8,59.8-59.8
												C446.6,449.7,419.8,422.9,386.8,422.9L386.8,422.9z"/>
										</g>
									</g>
								</g>
							</g>
						</g>
					</g>
					<g>
						<g>
							<g>
								<g>
									<g>
										<g>
											<path class="st7" d="M637.2,529.4c-25.8,0-46.7-21-46.7-46.7c0-25.8,21-46.7,46.7-46.7c25.8,0,46.8,21,46.8,46.7
												C683.9,508.4,663,529.4,637.2,529.4z"/>
										</g>
										<g>
											<path d="M637.2,449c18.6,0,33.7,15.1,33.7,33.7s-15.1,33.7-33.7,33.7c-18.6,0-33.7-15.1-33.7-33.7S618.6,449,637.2,449
												 M637.2,422.9c-33,0-59.8,26.8-59.8,59.8c0,33,26.8,59.8,59.8,59.8s59.8-26.8,59.8-59.8
												C697,449.7,670.2,422.9,637.2,422.9L637.2,422.9z"/>
										</g>
									</g>
								</g>
							</g>
						</g>
					</g>
				</g>
				<g>
					<g>
						<g>
							<g>
								<g>
									<g>
										<path class="st7" d="M512,662.5c-3.3,0-6.7-0.1-10.1-0.4c-67.4-5.5-120.2-67.6-120.2-141.4V376.6
											c0-12.2,9.7-22.2,21.6-22.2h217.4c11.9,0,21.6,10,21.6,22.2v146.7C642.3,600,583.8,662.5,512,662.5z"/>
									</g>
									<g>
										<path d="M620.7,367.4c4.7,0,8.5,4.1,8.5,9.2v146.7c0,69.6-52.6,126.2-117.2,126.2c-3,0-6-0.1-9-0.4
											c-61.5-5-108.2-62-108.2-128.4V376.6c0-5.1,3.8-9.2,8.5-9.2H620.7 M620.7,341.3H403.3c-19.1,0-34.6,15.8-34.6,35.3v144.1
											c0,80.6,58.1,148.4,132.2,154.4c3.7,0.3,7.5,0.5,11.1,0.5c79,0,143.3-68.3,143.3-152.3V376.6
											C655.3,357.1,639.8,341.3,620.7,341.3L620.7,341.3z"/>
									</g>
								</g>
							</g>
						</g>
					</g>
				</g>
				<g>
					<g>
						<g>
							<g>
								<g>
									<circle class="st7" cx="568.9" cy="481.2" r="33.7"/>
								</g>
							</g>
						</g>
					</g>
				</g>
				<g>
					<g>
						<g>
							<g>
								<path fill="#d9a37a" d="M521,557.7L521,557.7c-8.6,0-15.5-7-15.5-15.5v-33.5c0-8.6,7-15.5,15.5-15.5h0c8.6,0,15.5,7,15.5,15.5
									v33.5C536.5,550.8,529.6,557.7,521,557.7z"/>
							</g>
						</g>
					</g>
				</g>
				<g>
					<g>
						<g>
							<g>
								<g>
									<g>
										<g>
											<circle class="st9" cx="456.3" cy="481.2" r="33.7"/>
										</g>
									</g>
								</g>
							</g>
						</g>
						<g>
							<g>
								<g>
									<g>
										<g>
											<g>
												<path d="M456.3,493.5c15.9,0,15.9-24.7,0-24.7C440.5,468.9,440.4,493.5,456.3,493.5L456.3,493.5z"/>
											</g>
										</g>
									</g>
								</g>
							</g>
						</g>
					</g>
					<g>
						<g>
							<g>
								<g>
									<g>
										<g>
											<g>
												<path class="st7" d="M568.9,493.5c15.9,0,15.9-24.7,0-24.7C553.1,468.9,553,493.5,568.9,493.5L568.9,493.5z"/>
											</g>
										</g>
									</g>
								</g>
							</g>
						</g>
						<g>
							<g>
								<g>
									<g>
										<path d="M585.3,488.9h-32.6c-4.5,0-8.1-3.6-8.1-8.1l0,0c0-4.5,3.6-8.1,8.1-8.1h32.6c4.5,0,8.1,3.6,8.1,8.1l0,0
											C593.5,485.3,589.8,488.9,585.3,488.9z"/>
									</g>
								</g>
							</g>
						</g>
					</g>
					<g>
						<g>
							<g>
								<g>
									<path d="M487.8,434.7l-64.3,10.8v0c-1.9-11.3,5.7-22,17-23.9l23.4-3.9C475.2,415.8,485.9,423.4,487.8,434.7L487.8,434.7z"
										/>
								</g>
							</g>
						</g>
					</g>
					<g>
						<g>
							<g>
								<g>
									<path d="M600.7,444.1l-64.7-7.8v0c1.4-11.4,11.7-19.5,23.1-18.1l23.5,2.8C593.9,422.4,602,432.8,600.7,444.1L600.7,444.1z"
										/>
								</g>
							</g>
						</g>
					</g>
				</g>
				<g>
					<g>
						<g>
							<g>
								<path class="st8" d="M512.8,551.5L512.8,551.5c-8.6,0-15.5-7-15.5-15.5v-33.5c0-8.6,7-15.5,15.5-15.5h0
									c8.6,0,15.5,7,15.5,15.5V536C528.3,544.6,521.4,551.5,512.8,551.5z"/>
							</g>
						</g>
					</g>
				</g>
				<g>
					<g>
						<g>
							<g>
								<path d="M512,598.7c-20.2,0-36.6-16.4-36.6-36.6c0-5.1,4.1-9.2,9.2-9.2s9.2,4.1,9.2,9.2c0,10.1,8.2,18.3,18.3,18.3
									s18.3-8.2,18.3-18.3c0-5.1,4.1-9.2,9.2-9.2s9.2,4.1,9.2,9.2C548.6,582.3,532.2,598.7,512,598.7z"/>
							</g>
						</g>
					</g>
				</g>
				<g>
					<g>
						<g>
							<g>
								<g>
									<path class="st10" d="M640.3,471.4c-1.3,0-2.6-0.2-4-0.6c-5.2-1.6-8.8-6.4-9.1-11.8l-3.5-71H400.3l-3.4,60.9
										c-0.3,6-4.7,10.9-10.5,12.1c-0.8,0.2-1.7,0.2-2.5,0.2c-5,0-9.6-2.9-11.8-7.5l-34.6-73.2c-1.5-3.2-1.7-6.9-0.4-10.2
										l38.7-102.7c1.6-4.2,5.2-7.3,9.5-8.2l150.5-31.5c0.9-0.2,1.8-0.3,2.7-0.3c0.1,0,95.9,2,95.9,2c7,0.1,12.6,5.8,12.8,12.7
										l1.9,78.9l52.1,63.7c3.9,4.7,3.9,11.5,0.2,16.3l-50.9,65.1C648,469.6,644.2,471.4,640.3,471.4z"/>
								</g>
								<g>
									<path d="M538.5,240.7l95.6,2l2,83.4l54.9,67.1l-50.9,65.1l-4.1-83.4H388l-4.1,73.2L349.3,375L388,272.2L538.5,240.7
										 M538.5,214.6c-1.8,0-3.6,0.2-5.4,0.6l-150.6,31.5c-8.7,1.8-15.9,8-19.1,16.4l-38.7,102.7c-2.5,6.6-2.2,14,0.8,20.3
										l34.6,73.2c4.4,9.3,13.7,15,23.6,15c1.7,0,3.3-0.2,5-0.5c11.7-2.3,20.4-12.3,21.1-24.2l2.7-48.6h198.6l2.9,58.6
										c0.5,10.9,7.8,20.3,18.2,23.6c2.6,0.8,5.3,1.2,7.9,1.2c7.9,0,15.5-3.6,20.6-10l50.9-65.1c7.5-9.6,7.4-23.2-0.4-32.6
										l-49.3-60.2l-1.8-74.5c-0.3-14-11.6-25.2-25.6-25.5l-95.6-2C538.9,214.6,538.7,214.6,538.5,214.6L538.5,214.6z"/>
								</g>
							</g>
						</g>
					</g>
				</g>
				<g>
					<g>
						<g>
							<g>
								<path class="st11" d="M482.6,355.6"/>
							</g>
						</g>
					</g>
				</g>
			</g>
			<g>
				<g>
					<g>
						<g>
							<g>
								<path class="st7" d="M844,929.2c-54,0-65.4-27.1-65.4-49.9l0-70c0-3.9,1.7-7.5,4.7-10c2.4-2,5.3-3,8.4-3
									c0.8,0,1.6,0.1,2.3,0.2l52.4,9.5c6.2,1.1,10.7,6.5,10.7,12.9l-0.1,97.3c0,3.5-1.4,6.8-3.8,9.2
									C850.8,927.8,847.5,929.2,844,929.2L844,929.2z"/>
							</g>
							<g>
								<path d="M791.7,809.3l52.3,9.5l0,69.3v28c-28.9,0-52.3-7.9-52.3-36.8L791.7,809.3 M791.7,783.2c-6.1,0-12,2.1-16.7,6.1
									c-5.9,5-9.4,12.3-9.4,20l0,70c0,18.9,7.6,62.9,78.4,62.9h0c6.9,0,13.6-2.7,18.5-7.6c4.9-4.9,7.7-11.5,7.7-18.5v-28l0-69.3
									c0-12.6-9-23.5-21.5-25.7l-52.3-9.5C794.8,783.3,793.2,783.2,791.7,783.2L791.7,783.2z"/>
							</g>
						</g>
					</g>
				</g>
				<g>
					<g>
						<g>
							<g>
								<path class="st7" d="M803.3,809.8c-6.6,0-12.8-2.6-17.4-7.2c-4.6-4.7-7.2-10.8-7.2-17.4l0-17.7c0-13.6,11.1-24.6,24.6-24.6
									c13.6,0,24.6,11.1,24.6,24.6l0,17.7C827.9,798.8,816.8,809.8,803.3,809.8L803.3,809.8z"/>
							</g>
							<g>
								<path d="M803.3,756L803.3,756c6.4,0,11.6,5.2,11.6,11.6l0,17.7c0,6.4-5.2,11.6-11.6,11.6h0c-6.4,0-11.6-5.2-11.6-11.6
									l0-17.7C791.7,761.1,796.9,756,803.3,756 M803.3,729.8L803.3,729.8L803.3,729.8c-20.8,0-37.7,16.9-37.7,37.6l0,17.7
									c0,20.8,16.9,37.7,37.6,37.7c20.8,0,37.7-16.9,37.7-37.6l0-17.7c0-10.1-3.9-19.5-11-26.6
									C822.8,733.8,813.4,729.9,803.3,729.8L803.3,729.8z"/>
							</g>
						</g>
					</g>
				</g>
				<g>
					<g>
						<g>
							<g>
								<path class="st7" d="M839.3,854.9c-6.6,0-12.8-2.6-17.4-7.2c-4.6-4.7-7.2-10.8-7.2-17.4c0-13.6,11-24.6,24.6-24.6l32,0
									c13.6,0,24.6,11.1,24.6,24.6c0,13.6-11.1,24.6-24.6,24.6L839.3,854.9z"/>
							</g>
							<g>
								<path d="M839.3,818.8L839.3,818.8l32,0c6.4,0,11.6,5.2,11.6,11.6c0,6.4-5.2,11.6-11.6,11.6h0l-32,0
									c-6.4,0-11.6-5.2-11.6-11.6C827.8,823.9,832.9,818.8,839.3,818.8 M839.3,792.6L839.3,792.6L839.3,792.6
									c-20.8,0-37.7,16.9-37.7,37.6c0,20.8,16.9,37.7,37.6,37.7l32,0c20.8,0,37.7-16.9,37.7-37.7c0-10.1-3.9-19.5-11-26.6
									s-16.6-11-26.6-11.1L839.3,792.6L839.3,792.6z"/>
							</g>
						</g>
					</g>
				</g>
				<g>
					<g>
						<g>
							<g>
								<path class="st7" d="M839.3,899.1c-13.6,0-24.6-11.1-24.6-24.6c0-13.6,11.1-24.6,24.6-24.6l36.7,0
									c13.6,0,24.6,11.1,24.6,24.6c0,13.6-11.1,24.6-24.6,24.6L839.3,899.1z"/>
							</g>
							<g>
								<path d="M839.3,862.9L839.3,862.9l36.7,0c6.4,0,11.6,5.2,11.6,11.6c0,6.4-5.2,11.6-11.6,11.6h0l-36.7,0
									c-6.4,0-11.6-5.2-11.6-11.6v0C827.7,868,832.9,862.9,839.3,862.9 M839.3,836.8L839.3,836.8L839.3,836.8
									c-20.8,0-37.7,16.9-37.7,37.7c0,10.1,3.9,19.5,11,26.6c7.1,7.1,16.6,11,26.6,11.1l36.7,0c20.8,0,37.7-16.9,37.7-37.7
									c0-10.1-3.9-19.5-11-26.6c-7.1-7.1-16.6-11-26.6-11.1L839.3,836.8L839.3,836.8z"/>
							</g>
						</g>
					</g>
				</g>
				<g>
					<g>
						<g>
							<g>
								<path class="st7" d="M839.3,939.7c-13.6,0-24.6-11.1-24.6-24.6c0-13.6,11.1-24.6,24.6-24.6l32,0c13.6,0,24.6,11.1,24.6,24.6
									c0,13.6-11.1,24.6-24.6,24.6C871.2,939.7,839.3,939.7,839.3,939.7z"/>
							</g>
							<g>
								<path d="M839.3,903.5L839.3,903.5l32,0c6.4,0,11.6,5.2,11.6,11.6c0,6.4-5.2,11.6-11.6,11.6c0,0,0,0,0,0l-32,0
									c-6.4,0-11.6-5.2-11.6-11.6C827.7,908.7,832.9,903.5,839.3,903.5 M839.3,877.4L839.3,877.4L839.3,877.4
									c-20.8,0-37.7,16.9-37.7,37.6c0,10.1,3.9,19.5,11,26.7s16.6,11,26.6,11.1l32,0c20.8,0,37.7-16.9,37.7-37.7
									c0-10.1-3.9-19.5-11-26.6c-7.1-7.1-16.6-11-26.6-11.1L839.3,877.4L839.3,877.4z"/>
							</g>
						</g>
					</g>
				</g>
			</g>
			<g>
				<g>
					<g>
						<g>
							<g>
								<g>
									<g>
										<g>
											<path class="st2" d="M512,702.4c-140.1,0-254.1-114-254.1-254.1s114-254.1,254.1-254.1s254.1,114,254.1,254.1
												S652.1,702.4,512,702.4z M512,283.2c-91,0-165,74-165,165s74,165,165,165s165-74,165-165S603,283.2,512,283.2z"/>
										</g>
										<g>
											<path d="M512,207.1c132.9,0,241.1,108.2,241.1,241.1S644.9,689.3,512,689.3c-132.9,0-241.1-108.2-241.1-241.1
												S379.1,207.1,512,207.1 M512,626.2c98.2,0,178-79.9,178-178s-79.9-178-178-178c-98.2,0-178,79.9-178,178
												S413.8,626.2,512,626.2 M512,181c-147.3,0-267.2,119.9-267.2,267.2S364.7,715.4,512,715.4s267.2-119.9,267.2-267.2
												S659.3,181,512,181L512,181z M512,600.1c-83.8,0-151.9-68.1-151.9-151.9S428.2,296.3,512,296.3s151.9,68.1,151.9,151.9
												S595.8,600.1,512,600.1L512,600.1z"/>
										</g>
									</g>
								</g>
							</g>
						</g>
					</g>
				</g>
				<g>
					<path class="st12" d="M672.4,268.4c19.2,34.6,30.2,74.4,30.2,116.7c0,27.7-4.7,54.2-13.3,79c-8.1,90.7-84.5,162.1-177.3,162.1
						c-7.9,0-15.7-0.6-23.3-1.6c-8.9,1-17.9,1.6-27.1,1.6c-61.5,0-117.7-23.2-160.4-61.3C342.3,639,421.4,689.3,512,689.3
						c132.9,0,241.1-108.2,241.1-241.1C753.1,376.8,721.9,312.6,672.4,268.4z"/>
				</g>
				<g>
					<g>
						<g>
							<g>
								<g>
									<path class="st6" d="M747,534.8c-2.8,0-5.5-0.9-7.9-2.6c-25.9-19.6-40.8-49.4-40.8-81.9c0-32.4,14.9-62.3,40.8-81.9
										c2.3-1.8,5.1-2.6,7.9-2.6s5.5,0.9,7.9,2.6c25.9,19.6,40.8,49.4,40.8,81.9c0,32.4-14.9,62.3-40.8,81.9
										C752.5,533.9,749.8,534.8,747,534.8z"/>
								</g>
								<g>
									<path d="M747,378.8c21.6,16.3,35.6,42.3,35.6,71.5c0,29.2-14,55.1-35.6,71.5c-21.6-16.3-35.6-42.3-35.6-71.5
										C711.4,421,725.4,395.1,747,378.8 M747,352.7c-5.5,0-11.1,1.8-15.7,5.3c-29.2,22.1-46,55.7-46,92.3
										c0,36.6,16.8,70.2,46,92.3c4.7,3.5,10.2,5.3,15.7,5.3c5.5,0,11.1-1.8,15.7-5.3c29.2-22.1,46-55.7,46-92.3
										c0-36.6-16.8-70.2-46-92.3C758.1,354.4,752.5,352.7,747,352.7L747,352.7z"/>
								</g>
							</g>
						</g>
					</g>
				</g>
				<g>
					<g>
						<g>
							<g>
								<g>
									<path class="st6" d="M277,534.8c-2.8,0-5.5-0.9-7.9-2.6c-25.9-19.6-40.8-49.4-40.8-81.9c0-32.4,14.9-62.3,40.8-81.9
										c2.3-1.8,5.1-2.6,7.9-2.6s5.5,0.9,7.9,2.6c25.9,19.6,40.8,49.4,40.8,81.9c0,32.4-14.9,62.3-40.8,81.9
										C282.6,533.9,279.8,534.8,277,534.8z"/>
								</g>
								<g>
									<path d="M277,378.8c21.6,16.3,35.6,42.3,35.6,71.5c0,29.2-14,55.1-35.6,71.5c-21.6-16.3-35.6-42.3-35.6-71.5
										C241.4,421,255.4,395.1,277,378.8 M277,352.7c-5.5,0-11.1,1.8-15.7,5.3c-29.2,22.1-46,55.7-46,92.3
										c0,36.6,16.8,70.2,46,92.3c4.7,3.5,10.2,5.3,15.7,5.3c5.5,0,11.1-1.8,15.7-5.3c29.2-22.1,46-55.7,46-92.3
										c0-36.6-16.8-70.2-46-92.3C288.1,354.4,282.6,352.7,277,352.7L277,352.7z"/>
								</g>
							</g>
						</g>
					</g>
				</g>
				<g>
					<g>
						<g>
							<g>
								<line class="st8" x1="782.6" y1="450.2" x2="868" y2="450.2"/>
								<path d="M868,463.3h-85.5c-7.2,0-13.1-5.8-13.1-13.1c0-7.2,5.8-13.1,13.1-13.1H868c7.2,0,13.1,5.8,13.1,13.1
									C881.1,457.5,875.2,463.3,868,463.3z"/>
							</g>
						</g>
					</g>
				</g>
				<g>
					<g>
						<g>
							<g>
								<g>
									<path class="st6" d="M870.1,489.7c-21.8,0-39.5-17.7-39.5-39.5c0-21.8,17.7-39.5,39.5-39.5s39.5,17.7,39.5,39.5
										C909.6,472,891.9,489.7,870.1,489.7z"/>
								</g>
								<g>
									<path d="M870.1,423.8c14.6,0,26.4,11.8,26.4,26.4c0,14.6-11.8,26.4-26.4,26.4c-14.6,0-26.4-11.8-26.4-26.4
										C843.6,435.6,855.5,423.8,870.1,423.8 M870.1,397.7c-29,0-52.6,23.6-52.6,52.6c0,29,23.6,52.6,52.6,52.6
										c29,0,52.6-23.6,52.6-52.6C922.6,421.3,899.1,397.7,870.1,397.7L870.1,397.7z"/>
								</g>
							</g>
						</g>
					</g>
				</g>
				<g>
					<g>
						<g>
							<g>
								<line class="st8" x1="241.4" y1="450.2" x2="156" y2="450.2"/>
								<path d="M241.4,463.3H156c-7.2,0-13.1-5.8-13.1-13.1c0-7.2,5.8-13.1,13.1-13.1h85.4c7.2,0,13.1,5.8,13.1,13.1
									C254.5,457.5,248.6,463.3,241.4,463.3z"/>
							</g>
						</g>
					</g>
				</g>
				<g>
					<g>
						<g>
							<g>
								<g>
									<path class="st6" d="M153.9,489.7c-21.8,0-39.5-17.7-39.5-39.5c0-21.8,17.7-39.5,39.5-39.5s39.5,17.7,39.5,39.5
										C193.4,472,175.7,489.7,153.9,489.7z"/>
								</g>
								<g>
									<path d="M153.9,423.8c14.6,0,26.4,11.8,26.4,26.4c0,14.6-11.8,26.4-26.4,26.4c-14.6,0-26.4-11.8-26.4-26.4
										C127.5,435.6,139.3,423.8,153.9,423.8 M153.9,397.7c-29,0-52.6,23.6-52.6,52.6c0,29,23.6,52.6,52.6,52.6
										c29,0,52.6-23.6,52.6-52.6C206.5,421.3,182.9,397.7,153.9,397.7L153.9,397.7z"/>
								</g>
							</g>
						</g>
					</g>
				</g>
				<g class="st13">
					<g>
						<g>
							<g>
								<circle class="st9" cx="558.8" cy="293.6" r="38.7"/>
							</g>
						</g>
					</g>
				</g>
				<g class="st13">
					<g>
						<g>
							<g>
								<circle class="st9" cx="611.7" cy="346.5" r="18.3"/>
							</g>
						</g>
					</g>
				</g>
			</g>
			<g>
				<line class="st6" x1="512.7" y1="1104.2" x2="512.7" y2="1439.2"/>
				<path d="M512.7,1452.3c-7.2,0-13.1-5.8-13.1-13.1v-335c0-7.2,5.8-13.1,13.1-13.1c7.2,0,13.1,5.8,13.1,13.1v335
					C525.7,1446.4,519.9,1452.3,512.7,1452.3z"/>
			</g>
		</g>
	</g>
</g>
</svg>
